<?xml version="1.0" encoding="iso-8859-1"?>
<!-- Uploaded to: SVG Repo, www.svgrepo.com, Generator: SVG Repo Mixer Tools -->
<svg height="800px" width="800px" version="1.1" id="Layer_1" xmlns="http://www.w3.org/2000/svg" xmlns:xlink="http://www.w3.org/1999/xlink" 
	 viewBox="0 0 473.931 473.931" xml:space="preserve">
<circle style="fill:#FFC200;" cx="236.966" cy="236.966" r="236.966"/>
<path style="fill:#D68828;" d="M257.998,102.187c10.926-10.918,28.647-10.926,39.573,0l74.199,74.199
	c10.926,10.926,10.926,28.647,0,39.573L190.396,397.33c-10.926,10.93-28.647,10.93-39.573,0l-74.199-74.195
	c-10.926-10.926-10.926-28.639,0-39.573L257.998,102.187z"/>
<path style="fill:#F9F29A;" d="M256.879,103.31c10.926-10.926,28.639-10.926,39.565,0l74.199,74.199
	c10.926,10.926,10.933,28.639,0,39.565L189.269,398.449c-10.926,10.93-124.69-102.839-113.764-113.764L256.879,103.31z"/>
<path style="fill:#D68828;" d="M254.11,103.594c10.825-11.027,28.531-11.21,39.565-0.389l74.921,73.462
	c11.034,10.825,11.21,28.538,0.393,39.573L204.659,383.905C193.834,394.935,80.07,281.167,90.887,270.14L254.11,103.594z"/>
<path style="fill:#E79E2D;" d="M265.643,91.123c10.825-11.027,28.538-11.203,39.573-0.389l74.921,73.469
	c11.034,10.817,11.21,28.538,0.389,39.573L221.774,367.658c-20.58,20.58-132.365-96.814-115.059-114.12L265.643,91.123z"/>
<path style="fill:#448590;" d="M283.554,76.628c10.926-10.926,28.647-10.918,39.573,0.007l74.192,74.192
	c10.933,10.933,10.933,28.647,0.007,39.573l-73.918,73.926L209.632,150.557L283.554,76.628z"/>
<path style="fill:#357180;" d="M283.554,76.628c10.926-10.926,28.647-10.918,39.573,0.007l74.192,74.192
	c10.933,10.933,10.933,28.647,0.007,39.573L283.554,76.628z"/>
</svg>